<?xml version="1.0" standalone="no"?>
<!DOCTYPE svg PUBLIC "-//W3C//DTD SVG 20010904//EN"
 "http://www.w3.org/TR/2001/REC-SVG-20010904/DTD/svg10.dtd">
<svg version="1.0" xmlns="http://www.w3.org/2000/svg"
 width="700.000000pt" height="700.000000pt" viewBox="0 0 700.000000 700.000000"
 preserveAspectRatio="xMidYMid meet">
<metadata>
Created by potrace 1.14, written by Peter Selinger 2001-2017
</metadata>
<g transform="translate(0.000000,700.000000) scale(0.100000,-0.100000)"
fill="#000000" stroke="none">
<path d="M1662 6980 c-23 -11 -53 -31 -67 -46 -24 -26 -145 -200 -145 -208 0
-2 -15 -30 -33 -63 -114 -203 -131 -346 -62 -529 34 -91 101 -200 218 -356
106 -143 163 -237 172 -284 8 -37 -48 -152 -138 -287 -45 -66 -68 -110 -72
-140 -11 -70 6 -125 54 -180 82 -93 215 -99 306 -13 96 90 252 370 280 501 41
200 -21 358 -271 692 -88 116 -133 192 -146 241 -9 36 -6 47 26 113 20 41 68
121 106 179 50 77 70 118 75 152 13 87 -38 183 -118 225 -47 24 -134 26 -185
3z"/>
<path d="M2986 6986 c-55 -21 -90 -57 -168 -176 -123 -186 -190 -346 -191
-458 -2 -173 61 -310 268 -587 103 -139 152 -220 160 -267 9 -48 -25 -122
-124 -271 -39 -59 -75 -125 -80 -147 -28 -125 54 -244 183 -264 53 -9 133 16
174 53 68 63 218 318 268 456 25 69 25 230 0 305 -39 117 -112 241 -246 419
-88 117 -146 211 -159 256 -10 37 -8 46 23 110 18 39 66 119 105 179 39 60 73
124 77 143 19 99 -41 213 -131 247 -39 15 -120 16 -159 2z"/>
<path d="M4286 6979 c-57 -28 -78 -50 -155 -169 -78 -118 -140 -237 -167 -320
-29 -86 -25 -243 9 -339 29 -83 90 -188 177 -306 118 -160 197 -282 213 -328
l15 -46 -37 -78 c-21 -43 -64 -116 -96 -163 -71 -104 -86 -139 -86 -199 -1
-121 92 -214 216 -215 94 -1 141 33 228 159 81 120 171 297 192 380 31 121 9
269 -60 405 -30 59 -124 198 -223 330 -78 104 -134 206 -134 243 0 32 61 152
131 256 31 47 63 101 70 119 39 96 -11 221 -106 268 -53 26 -138 27 -187 3z"/>
<path d="M179 4369 c-109 -18 -190 -125 -175 -233 8 -58 9 -65 92 -436 42
-184 78 -346 80 -359 3 -13 28 -125 55 -250 28 -124 52 -233 54 -241 2 -8 13
-58 25 -110 12 -52 23 -106 26 -120 3 -14 39 -176 80 -360 42 -184 78 -346 80
-360 4 -19 87 -393 110 -495 3 -11 7 -31 10 -45 3 -14 7 -32 9 -40 2 -8 7 -30
10 -49 3 -19 8 -37 10 -41 2 -4 7 -22 10 -41 12 -70 88 -396 102 -439 51 -157
166 -335 293 -454 157 -148 382 -258 580 -284 71 -9 2801 -9 2860 0 310 50
575 219 747 475 94 141 142 270 199 542 l17 83 56 -7 c110 -15 335 -10 431 10
14 3 34 7 45 9 74 15 210 65 299 110 143 73 223 131 341 250 190 191 302 400
356 668 19 90 21 126 16 293 -7 247 -30 345 -132 550 -154 309 -437 553 -760
656 -38 12 -73 23 -76 25 -3 2 4 50 17 106 32 139 33 144 40 176 3 15 13 63
23 107 26 121 13 181 -53 247 -66 67 193 61 -2972 62 -1579 1 -2886 -2 -2905
-5z m5451 -440 c0 -5 -14 -70 -31 -146 -18 -76 -35 -156 -40 -178 -7 -35 -115
-519 -170 -765 -11 -47 -22 -98 -25 -114 -3 -16 -19 -88 -35 -160 -16 -72 -32
-142 -35 -156 -3 -14 -14 -65 -25 -115 -12 -49 -23 -101 -25 -115 -3 -14 -10
-43 -15 -65 -5 -22 -12 -49 -14 -60 -2 -11 -11 -51 -20 -90 -70 -313 -117
-524 -121 -545 -59 -299 -140 -607 -168 -640 -7 -8 -16 -22 -19 -30 -13 -35
-99 -130 -158 -175 -95 -71 -172 -104 -309 -131 -44 -8 -2637 -9 -2705 -1
-144 18 -269 81 -381 192 -128 127 -163 214 -248 625 -1 8 -6 26 -9 40 -5 22
-54 240 -62 280 -2 8 -107 484 -234 1057 -128 574 -234 1052 -237 1063 -2 11
-6 30 -9 43 -3 12 -7 32 -9 45 -3 12 -7 30 -10 40 -3 9 -7 28 -10 42 -3 14 -7
34 -10 46 l-4 21 2569 0 c1413 0 2569 -4 2569 -8z m440 -737 c98 -45 220 -144
300 -241 171 -210 234 -534 154 -796 -97 -315 -379 -564 -694 -612 -60 -9
-267 -10 -275 -1 -3 3 -1 25 5 49 15 62 22 95 34 154 3 11 12 54 21 95 9 41
18 82 20 90 4 19 55 249 60 270 9 38 36 158 41 180 19 88 186 838 190 852 5
16 9 16 57 -3 29 -11 68 -28 87 -37z"/>
</g>
</svg>
